# xmcd
#
# Track frame offsets:
#	150
#	21149
#	41174
#	75074
#	104153
#	126878
#	142666
#	182266
#	208366
#	237541
#
# Disc length: 3587 seconds
#
# Revision: 1
# Processed by: cddbd v1.5.1PL0 Copyright (c) Steve Scherf et al.
# Submitted via: EasyCDDAExtractor 7.0.5.4
#
DISCID=820e010a
DTITLE=Red Cloud
DYEAR=2004
DGENRE=Classic Rock
TTITLE0=Car Wreck
TTITLE1=Can I Take You
TTITLE2=Green Grocer
TTITLE3=Room Full of Folks
TTITLE4=Town Without A Name
TTITLE5=Coonskin Cap
TTITLE6=Children You Left Laughing
TTITLE7=Last Night On Earth
TTITLE8=Love, It's not Working
TTITLE9=Two Fiery Eyes
EXTD=
EXTT0=
EXTT1=
EXTT2=
EXTT3=
EXTT4=
EXTT5=
EXTT6=
EXTT7=
EXTT8=
EXTT9=
PLAYORDER=
